<svg xmlns="http://www.w3.org/2000/svg" version="1.1" x="0" y="0" viewBox="0 0 1024 1024" enable-background="new 0 0 1024 1024" xml:space="preserve"><circle fill="#FF6600" cx="512" cy="512" r="512"/><rect x="216.6" y="488" fill="#FFAA00" width="542" height="48"/><rect x="690.7" y="280.7" transform="matrix(-0.7071 0.7071 -0.7071 -0.7071 1539.9081 266.7592)" fill="#FFAA00" width="48" height="343.2"/><rect x="690.7" y="400" transform="matrix(0.7071 0.7071 -0.7071 0.7071 613.5663 -337.9662)" fill="#FFAA00" width="48" height="343.3"/><circle fill="#FFAA00" cx="775" cy="512" r="128"/><circle fill="#FFAA00" cx="534" cy="289" r="98"/><circle fill="#FFAA00" cx="534" cy="735" r="98"/><circle fill="#FFAA00" cx="489" cy="512" r="98"/><circle fill="#FFAA00" cx="187" cy="512" r="48"/><circle fill="#FFAA00" cx="316" cy="332" r="74"/><circle fill="#FFAA00" cx="316" cy="692" r="74"/><circle fill="#FFFFFF" cx="775" cy="512" r="88"/><circle fill="#FFFFFF" cx="489" cy="512" r="66"/><circle fill="#FFFFFF" cx="534" cy="289" r="66"/><circle fill="#FFFFFF" cx="534" cy="735" r="66"/><circle fill="#FFFFFF" cx="316" cy="332" r="48"/><circle fill="#FFFFFF" cx="316" cy="692" r="48"/><circle fill="#FFFFFF" cx="187" cy="512" r="24"/></svg>